<?xml version="1.0" encoding="utf-8"?>
<!-- Generator: Adobe Illustrator 25.2.0, SVG Export Plug-In . SVG Version: 6.00 Build 0)  -->
<svg version="1.1" id="Layer_1" xmlns="http://www.w3.org/2000/svg" xmlns:xlink="http://www.w3.org/1999/xlink" x="0px" y="0px"
	 viewBox="0 0 4148.24 4135.82" style="enable-background:new 0 0 4148.24 4135.82;" xml:space="preserve">
<path d="M1230.47,1375.8c-5.52-7.16-14.38-8.41-22.12-11.59c-77.33-31.79-150.13-71.59-216.44-122.8
	c-34.95-26.99-68.08-55.97-96.53-89.94c-35.71-42.64-62.65-89.75-73.82-144.95c-7.87-38.9-7.05-77.82-0.99-116.8
	c19.38-124.54,75.33-231.67,155.98-326.97c43.81-51.77,92.88-98.14,146.17-139.94c133.11-104.42,276.17-192.24,432.08-258.73
	c97.55-41.6,198.68-71.73,301.49-96.72c89.44-21.74,179.72-39.23,270.92-51.74c106.05-14.54,212.68-19.77,319.4-12.12
	c112.66,8.08,223.08,28.81,329.19,69.29c89.26,34.05,162.91,88.63,219.87,165.38c23.58,31.77,41.02,66.51,48.92,105.7
	c8.77,43.48,2.91,85.7-10.17,127.33c-15.2,48.41-41.64,90.51-73.99,129.09c-42.44,50.63-92.42,92.92-146.24,130.88
	c-106.09,74.82-223.27,125.2-348.49,157.63c-46.42,12.02-93,23.73-141.3,25.16c-11.67,0.35-23.59,0.03-35.05-1.97
	c-14.22-2.48-18.63-14.41-11.11-26.56c7.53-12.17,18.95-19.6,31.55-25.42c21.54-9.94,44.43-15.05,67.81-18.06
	c50.78-6.53,100.55-17.35,146.29-40.97c167.86-86.67,275.16-219.54,307.11-408.33c10.72-63.36-5.6-120.07-47.46-169.54
	c-50.6-59.79-114.99-96.18-190.15-115.16c-65.93-16.65-133.14-22.65-200.83-22.75c-140.59-0.21-279.21,17.19-416.1,48.9
	c-119.57,27.7-235.6,65.59-345.72,120.39c-124.37,61.89-238.22,139.22-339.82,234.1c-64.17,59.93-118.65,127.52-157.5,206.83
	c-34.11,69.63-52.98,142.94-52.3,220.81c1.06,122.65,54.94,215.73,158.13,280.79c30.79,19.41,64.44,32.85,98.89,44.34
	c91.03,30.37,183.42,55.76,277.1,76.6c44.95,10,89.27,22.56,131.27,41.69c19.49,8.88,38.12,19.91,56.33,31.26
	c13.34,8.31,24.2,19.84,32.27,33.63c18.33,31.34,10.73,67.23-18.88,88.31c-18.86,13.42-40.62,19.68-63.08,22.21
	c-25.23,2.84-50.73,4.93-76.09,4.79c-96.94-0.53-193.87-2.01-290.8-3.3c-70.51-0.93-140.98-0.65-211.36,4.71
	c-106.8,8.13-211.63,26.41-313.5,60.03c-178.42,58.88-321.79,167.16-438.49,312.57c-56.23,70.06-100.07,147.16-129.15,232.39
	c-29.74,87.16-42.76,176.8-38.4,268.72c3.6,75.9,20.08,148.93,49.89,219.19c35.02,82.55,89.42,148.78,161.95,200.77
	c84.59,60.63,177.91,102.3,278.53,127.81c77.03,19.54,155.42,30.38,234.63,36.7c62.57,4.99,125.15,5.83,187.83,5.56
	c123.91-0.53,246.25-15.81,366.69-43.71c299.29-69.33,578.39-187.45,836.98-353.31c98.3-63.05,190.06-134.75,272.51-217.84
	c35.25-35.53,67.58-73.51,94.81-115.64c18.14-28.07,33.23-57.58,43.54-89.49c8.84-27.38,12.39-55.31,10.38-83.96
	c-2.57-36.59-20.87-62.58-54.02-77.62c-11.49-5.21-24.04-8.1-36.11-12.04c-18.58-6.05-37.49-11.28-55.6-18.49
	c-8.78-3.5-17.3-9.59-23.76-16.53c-10.82-11.63-6.16-27.88,8.85-32.89c7.29-2.43,15.32-3.52,23.04-3.64
	c46.88-0.75,91.43,8.04,132.07,32.83c28.51,17.39,55.73,36.38,79.33,60.22c55.03,55.58,75.04,121.94,62.51,198.93
	c-8.64,53.1-29.08,101.36-57.18,146.7c-35.34,57.02-79.74,106.47-128.46,152.2c-92.62,86.94-196.15,158.82-306.58,221.05
	c-127.47,71.83-261.56,128.75-400.08,175.26c-157.93,53.03-318.85,94.69-483.18,122.57c-161.71,27.45-324.58,37.69-488.53,32.71
	c-89.12-2.71-177.99-8.02-266.4-19.64c-126.75-16.66-250.05-46.34-367.13-98.98c-97.49-43.83-185.33-101.52-258.05-180.62
	c-81.93-89.13-135.86-193.16-163.73-310.83c-9.56-40.38-12.13-81.46-8.47-122.58c8.2-92.13,26.39-182.05,65.16-266.76
	c70.58-154.22,172.08-283.65,307.02-387.22c167.14-128.29,352.8-216.74,557.37-266.46c78.07-18.97,156.61-34.92,236.47-43.96
	c16.52-1.87,33.19-2.41,49.77-3.87C1221.88,1380.97,1227.41,1382.35,1230.47,1375.8z"/>
<path d="M3106.93,2504.74c2.14,4.81,2.62,6.83,3.77,8.33c54.65,71.46,85.83,153.12,104.63,240.19c3.72,17.21,7.39,34.44,11.48,51.56
	c1.31,5.51,3.88,10.72,5.91,16.19c23.89,3.36,45.64-2.01,67.17-8.72c24.52-7.64,46.74-19.98,67.86-34.36
	c29.27-19.92,55.51-43.43,79.78-69.09c69.58-73.56,130.47-153.54,180.08-242.05c38.29-68.31,75.26-137.28,109.1-207.92
	c10.98-22.94,22.73-45.52,34.45-68.09c3.59-6.91,7.68-13.74,12.57-19.77c8.48-10.45,19.36-12.61,31.51-7.43
	c11.88,5.07,17.21,14.84,14.33,28.62c-1.59,7.58-4.41,15.03-7.55,22.15c-52.07,118.35-108.91,234.26-177.26,344.22
	c-44.54,71.66-93.32,140.13-152.55,200.65c-26.78,27.36-55.37,52.6-87.22,73.94c-45.38,30.41-94.09,52.06-149.47,55.88
	c-4.76,0.33-9.43,1.91-15.48,3.2c-0.5,7.11-1.43,13.68-1.33,20.23c0.5,34.26,0.76,68.54,2.03,102.78
	c3.43,92.48-6.25,183.68-24.47,274.25c-19.49,96.92-40.4,193.48-71.88,287.35c-49.37,147.22-122.19,281.61-222.28,400.67
	c-41.27,49.09-88.67,91.17-145.92,121.23c-66.66,35-136.94,45.89-210.55,29.7c-71.58-15.75-114.16-61.7-126.27-133.67
	c-5.56-33.02-5.91-66.08-2.92-99.47c7.27-81.26,25.42-160.34,46.67-238.77c42-155.04,94.89-306.54,153.03-456.13
	c50.68-130.39,104.1-259.71,156.32-389.5c3.64-9.04,7.36-18.04,11.33-27.76c-4.96-9.57-9.8-19.11-14.81-28.56
	c-20.17-37.99-30.82-77.82-26.9-121.41c2.9-32.27,6.86-64.07,16.74-95.11c17.76-55.8,58.86-88.62,109.54-111.49
	c10.18-4.59,22.85-4.17,34.44-4.95c11.61-0.78,23.32-0.17,36.41-0.17c4.83-10.33,9.9-20.75,14.62-31.33
	c147.36-330.72,298.55-659.65,457.82-984.83c88.25-180.18,179.86-358.63,273.72-535.94c20.63-38.98,42.86-77.04,70.36-111.62
	c13.37-16.82,27.47-33.28,42.88-48.21c60.6-58.69,133.67-78.18,216.1-66.4c34.85,4.98,69.68,10.12,104.5,15.33
	c2.56,0.38,4.95,1.92,9.01,3.58c-2.78,3.9-4.56,7.24-7.09,9.84c-63.13,64.72-116.83,136.98-168.28,211
	c-86.09,123.88-164.31,252.72-239.78,383.24c-228.02,394.31-431.88,800.9-617.42,1216.77
	C3112.51,2490,3109.88,2497.32,3106.93,2504.74z M2956.18,2847.85c-4.63,9.31-8.01,15.05-10.44,21.17
	c-11.55,29.08-22.96,58.21-34.19,87.41c-71.65,186.17-140.72,373.25-198.63,564.24c-31.51,103.91-60.26,208.52-76.7,316.09
	c-5.77,37.74-10.65,75.68-8.44,113.93c1.01,17.44,3.07,35.29,8.04,51.94c10.83,36.24,37.82,49.66,73.05,36.16
	c16.18-6.2,31.86-15.31,45.58-25.93c17.7-13.7,34.17-29.34,49.5-45.71c81.77-87.29,144.35-187.2,192.28-296.46
	c65.51-149.32,111.15-304.79,141.27-464.83c16.67-88.59,26.21-178.02,25.18-268.34c-0.12-10.42,2.21-21.33-4.12-33.55
	C3086.81,2907.13,3018.57,2894.68,2956.18,2847.85z M3154.75,2836.61c0-8.65,0.59-13.54-0.1-18.24
	c-3.27-22.17-6.06-44.45-10.55-66.38c-10.87-53.07-30.38-102.71-61.9-147.16c-3.12-4.39-7.54-7.86-13.37-13.8
	c-27.6,60.65-53.13,119.33-77.71,176.75c14.99,25.9,25.1,36.91,44.94,47.88C3072.32,2835.71,3111.51,2838.76,3154.75,2836.61z"/>
</svg>
